<?xml version="1.0" encoding="utf-8"?>
<!-- Generator: Adobe Illustrator 21.0.0, SVG Export Plug-In . SVG Version: 6.00 Build 0)  -->
<svg version="1.1" xmlns="http://www.w3.org/2000/svg" xmlns:xlink="http://www.w3.org/1999/xlink" x="0px" y="0px"
	 viewBox="0 0 172 110" style="enable-background:new 0 0 172 110;" xml:space="preserve">
<style type="text/css">
	.st0{fill:#FFFFFF;}
	.st1{fill:#231F20;}
	.st2{fill:#F58220;}
	.st3{fill:#E83530;}
	.st4{fill:url(#SVGID_1_);}
	.st5{fill:#001722;}
</style>
<g id="Layer_1">
</g>
<g id="Layer_2">
	<polygon class="st0" points="0.6,0.6 171.3,0.6 171.3,109.3 0.6,109.3 	"/>
	<path class="st1" d="M171.3,0L0,0l0,110l171.9,0l0-110H171.3z M170.7,1.2c0,1.2,0,106.3,0,107.5c-1.2,0-168.2,0-169.5,0
		c0-1.2,0-106.3,0-107.5C2.5,1.2,169.5,1.2,170.7,1.2z"/>
	<path class="st2" d="M170.7,61.1c0,0-46.6,32.9-132.1,47.6h132.1V61.1z"/>
	<path class="st3" d="M154.3,95.2"/>
	
		<radialGradient id="SVGID_1_" cx="83.6187" cy="-445.7865" r="12.5336" gradientTransform="matrix(1 0 0 1 6.416 486.083)" gradientUnits="userSpaceOnUse">
		<stop  offset="5.618000e-03" style="stop-color:#FFEFE1"/>
		<stop  offset="0.1092" style="stop-color:#FFEAD8"/>
		<stop  offset="0.2782" style="stop-color:#FDDCC0"/>
		<stop  offset="0.4917" style="stop-color:#FBC698"/>
		<stop  offset="0.7412" style="stop-color:#F8A761"/>
		<stop  offset="1" style="stop-color:#F58220"/>
	</radialGradient>
	<path class="st4" d="M90.1,27.9c-7,0-12.7,5.5-12.7,12.2c0,7.2,5.4,12.6,12.7,12.6c7.1,0,12.7-5.4,12.7-12.4
		C102.7,33.3,97.2,27.9,90.1,27.9z"/>
	<path class="st5" d="M18,28.4h-6.8v23.8H18c3.6,0,6.2-0.9,8.5-2.7c2.7-2.2,4.3-5.6,4.3-9.1C30.8,33.2,25.5,28.4,18,28.4z
		 M23.4,46.2c-1.5,1.3-3.4,1.9-6.4,1.9h-1.2V32.4h1.2c3,0,4.8,0.5,6.4,1.9c1.6,1.4,2.6,3.6,2.6,5.9C26,42.5,25,44.8,23.4,46.2z"/>
	<rect x="32.9" y="28.4" class="st5" width="4.6" height="23.8"/>
	<path class="st5" d="M48.9,37.5c-2.8-1-3.6-1.7-3.6-3c0-1.5,1.5-2.6,3.5-2.6c1.4,0,2.5,0.6,3.8,1.9l2.4-3.2c-2-1.8-4.4-2.6-7-2.6
		c-4.2,0-7.4,2.9-7.4,6.8c0,3.3,1.5,5,5.9,6.5c1.8,0.6,2.7,1.1,3.2,1.4c0.9,0.6,1.4,1.5,1.4,2.5c0,1.9-1.5,3.4-3.6,3.4
		c-2.2,0-4-1.1-5.1-3.2l-3,2.9c2.1,3.1,4.7,4.5,8.2,4.5c4.8,0,8.2-3.2,8.2-7.8C55.8,41.1,54.2,39.4,48.9,37.5z"/>
	<path class="st5" d="M57.2,40.3c0,7,5.5,12.4,12.6,12.4c2,0,3.7-0.4,5.8-1.4v-5.5c-1.9,1.9-3.5,2.6-5.6,2.6c-4.7,0-8-3.4-8-8.2
		c0-4.6,3.4-8.2,7.8-8.2c2.2,0,3.9,0.8,5.8,2.7v-5.5c-2-1-3.7-1.5-5.7-1.5C62.9,27.8,57.2,33.3,57.2,40.3z"/>
	<polygon class="st5" points="113.2,44.3 106.9,28.4 101.8,28.4 111.9,52.8 114.4,52.8 124.7,28.4 119.6,28.4 	"/>
	<polygon class="st5" points="126.8,52.2 139.9,52.2 139.9,48.1 131.4,48.1 131.4,41.7 139.6,41.7 139.6,37.7 131.4,37.7 
		131.4,32.4 139.9,32.4 139.9,28.4 126.8,28.4 	"/>
	<path class="st5" d="M158.3,35.4c0-4.5-3.1-7-8.4-7H143v23.8h4.6v-9.6h0.6l6.4,9.6h5.7l-7.5-10C156.4,41.4,158.3,39,158.3,35.4z
		 M149,39.3h-1.4v-7.2h1.4c2.9,0,4.5,1.2,4.5,3.5C153.5,38,152,39.3,149,39.3z"/>
	<path class="st1" d="M161.6,30.1c0-0.4-0.3-0.6-0.8-0.6h-0.7v2.1h0.5v-0.8l0.6,0.8h0.6l-0.7-0.9C161.4,30.6,161.6,30.4,161.6,30.1z
		 M160.7,30.4L160.7,30.4l-0.1-0.5h0.1c0.2,0,0.4,0.1,0.4,0.3C161.1,30.3,161,30.4,160.7,30.4z"/>
	<path class="st1" d="M160.9,28.7c-1,0-1.8,0.8-1.8,1.8c0,1,0.8,1.8,1.8,1.8c1,0,1.8-0.8,1.8-1.8C162.7,29.5,161.9,28.7,160.9,28.7z
		 M160.9,32c-0.8,0-1.5-0.7-1.5-1.5c0-0.8,0.6-1.5,1.5-1.5c0.8,0,1.4,0.7,1.4,1.5C162.3,31.4,161.7,32,160.9,32z"/>
	<path class="st1" d="M52.8,58.4l6.2,6.5v-6.2h0.9v8.3l-6.2-6.5v6.1h-0.9V58.4z"/>
	<path class="st1" d="M52.7,58.4v8.4h1.1c0,0,0-5.6,0-6c0.3,0.3,6.2,6.5,6.2,6.5v-8.6h-1.1c0,0,0,5.7,0,6c-0.3-0.3-6.2-6.5-6.2-6.5
		V58.4z M52.9,58.6c0.3,0.3,6.2,6.5,6.2,6.5s0-6.1,0-6.3c0.1,0,0.6,0,0.7,0c0,0.2,0,7.6,0,8c-0.3-0.3-6.2-6.5-6.2-6.5s0,6.1,0,6.3
		c-0.1,0-0.6,0-0.7,0C52.9,66.5,52.9,59,52.9,58.6z"/>
	<path class="st1" d="M64.2,58.7h4.1v0.8h-3.2v2.4h3.1v0.8h-3.1v3.1h3.2v0.8h-4.1V58.7z"/>
	<path class="st1" d="M68.3,58.7h-4.2v8.1h4.3v-1c0,0-3.1,0-3.2,0c0-0.2,0-2.8,0-3c0.2,0,3.1,0,3.1,0v-1c0,0-3,0-3.1,0
		c0-0.2,0-2.1,0-2.2c0.2,0,3.2,0,3.2,0L68.3,58.7L68.3,58.7z M68.2,58.8c0,0.1,0,0.5,0,0.7c-0.2,0-3.2,0-3.2,0V62c0,0,3,0,3.1,0
		c0,0.1,0,0.5,0,0.7c-0.2,0-3.1,0-3.1,0V66c0,0,3.1,0,3.2,0c0,0.1,0,0.5,0,0.7c-0.2,0-3.8,0-4,0c0-0.2,0-7.6,0-7.8
		C64.4,58.8,68.1,58.8,68.2,58.8z"/>
	<path class="st1" d="M74.6,66.7h-0.9v-7.1h-1.9v-0.8h4.8v0.8h-1.9V66.7z"/>
	<path class="st1" d="M76.5,58.7h-4.8v1c0,0,1.8,0,1.9,0c0,0.2,0,7.1,0,7.1h1.1c0,0,0-7,0-7.1c0.2,0,1.9,0,1.9,0L76.5,58.7
		L76.5,58.7z M76.4,58.8c0,0.1,0,0.5,0,0.7c-0.2,0-1.9,0-1.9,0s0,7,0,7.1c-0.1,0-0.6,0-0.7,0c0-0.2,0-7.1,0-7.1s-1.8,0-1.9,0
		c0-0.1,0-0.5,0-0.7C72,58.8,76.3,58.8,76.4,58.8z"/>
	<path class="st1" d="M82.4,64.7l2.6-6.4l2.6,6.4l2.1-6h1l-3.1,8.4L85,60.7l-2.6,6.4l-3-8.4h1L82.4,64.7z"/>
	<path class="st1" d="M84.9,58.3c0,0-2.3,5.8-2.5,6.2c-0.1-0.4-2-5.8-2-5.8h-1.1l3.2,8.7c0,0,2.4-6.1,2.6-6.4
		c0.1,0.4,2.6,6.4,2.6,6.4l3.2-8.7h-1.1c0,0-1.9,5.4-2,5.8c-0.2-0.4-2.6-6.4-2.6-6.4L84.9,58.3z M82.5,64.7c0,0,2.4-5.8,2.5-6.2
		c0.1,0.4,2.6,6.4,2.6,6.4s2.1-6,2.1-6.1c0.1,0,0.6,0,0.8,0c-0.1,0.2-2.8,7.7-2.9,8.1c-0.2-0.4-2.6-6.4-2.6-6.4s-2.4,6-2.6,6.4
		c-0.1-0.4-2.9-7.9-2.9-8.1c0.2,0,0.7,0,0.8,0c0,0.1,2.1,6.1,2.1,6.1L82.5,64.7z"/>
	<path class="st1" d="M102.1,62.7c0,2.3-1.9,4.1-4.2,4.1c-2.3,0-4.2-1.8-4.2-4.1c0-2.3,1.9-4.1,4.2-4.1
		C100.2,58.6,102.1,60.5,102.1,62.7z M94.7,62.7c0,1.8,1.5,3.3,3.3,3.3c1.8,0,3.3-1.5,3.3-3.3c0-1.8-1.4-3.3-3.3-3.3
		C96.1,59.4,94.7,60.9,94.7,62.7z"/>
	<path class="st1" d="M93.7,62.7c0,2.3,1.9,4.2,4.2,4.2c2.3,0,4.2-1.9,4.2-4.2c0-2.3-1.9-4.2-4.2-4.2C95.6,58.5,93.7,60.4,93.7,62.7
		z M93.9,62.7c0-2.2,1.8-4,4.1-4c2.2,0,4.1,1.8,4.1,4c0,2.2-1.8,4-4.1,4C95.7,66.8,93.9,65,93.9,62.7z"/>
	<path class="st1" d="M94.6,62.7c0,1.9,1.5,3.4,3.3,3.4c1.8,0,3.3-1.5,3.3-3.4c0-1.9-1.5-3.4-3.3-3.4C96.1,59.3,94.6,60.9,94.6,62.7
		z M94.8,62.7c0-1.8,1.4-3.2,3.2-3.2c1.8,0,3.2,1.4,3.2,3.2c0,1.8-1.4,3.2-3.2,3.2C96.2,65.9,94.8,64.5,94.8,62.7z"/>
	<path class="st1" d="M106.9,66.7H106v-8h1.2c1.5,0,2.9,0.4,2.9,2.2c0,1.2-0.8,2.1-2,2.2l2.5,3.6h-1.1l-2.4-3.5h-0.2V66.7z
		 M106.9,62.4h0.3c1,0,2-0.2,2-1.4c0-1.3-1-1.4-2-1.4h-0.3V62.4z"/>
	<path class="st1" d="M106,58.7L106,58.7l-0.1,8.1h1.1c0,0,0-3.3,0-3.5c0.1,0,0.1,0,0.1,0l0,0c0,0.1,2.3,3.5,2.3,3.5l1.2,0h0.2
		c0,0-2.4-3.4-2.6-3.6c1.2-0.2,1.9-1,1.9-2.2c0-1.5-1-2.3-3-2.3H106z M107.1,58.8c1.9,0,2.8,0.7,2.8,2.1c0,1.2-0.8,2-1.9,2.1l-0.1,0
		c0,0,2.4,3.3,2.5,3.6c-0.2,0-0.9,0-0.9,0h0c0-0.1-2.3-3.5-2.3-3.5l-0.3,0h-0.1c0,0,0,3.3,0,3.5c-0.1,0-0.6,0-0.7,0
		c0-0.2,0-7.6,0-7.8C106.2,58.8,107.1,58.8,107.1,58.8z"/>
	<path class="st1" d="M106.9,59.5L106.9,59.5l-0.1,3h0.4c1,0,2.1-0.2,2.1-1.5c0-1.4-1.1-1.5-2.1-1.5H106.9z M107.1,59.7
		c1,0,1.9,0.1,1.9,1.3c0,1.2-1,1.3-1.9,1.3c0,0-0.1,0-0.2,0c0-0.2,0-2.5,0-2.7C107,59.7,107.1,59.7,107.1,59.7z"/>
	<path class="st1" d="M118.6,58.7h1.2l-3.7,3.7l3.9,4.3h-1.2l-3.3-3.7l-0.2,0.2v3.4h-0.9v-8h0.9v3.4L118.6,58.7z"/>
	<path class="st1" d="M119.8,58.7h-1.2c0,0-3,3-3.3,3.3c0-0.4,0-3.3,0-3.3h-1.1v8.1h1.1c0,0,0-3.5,0-3.5c0,0,0.1-0.1,0.1-0.1
		c0.1,0.1,3.2,3.6,3.2,3.6l1.3,0h0.2c0,0-3.8-4.2-3.9-4.3c0.1-0.1,3.8-3.8,3.8-3.8H119.8z M119.6,58.8c-0.3,0.3-3.7,3.6-3.7,3.6
		s3.6,3.9,3.8,4.2c-0.3,0-1,0-1,0l0,0c0,0-3.2-3.6-3.2-3.6l-0.1-0.1l-0.3,0.3c0,0,0,3.3,0,3.4c-0.1,0-0.6,0-0.7,0c0-0.2,0-7.6,0-7.8
		c0.1,0,0.6,0,0.7,0c0,0.2,0,3.5,0,3.5s3.5-3.5,3.5-3.5C118.7,58.8,119.3,58.8,119.6,58.8z"/>
</g>
</svg>
