<?xml version="1.0" encoding="utf-8"?>
<!-- Generator: Adobe Illustrator 21.0.0, SVG Export Plug-In . SVG Version: 6.00 Build 0)  -->
<svg version="1.1" id="Layer_1" xmlns="http://www.w3.org/2000/svg" xmlns:xlink="http://www.w3.org/1999/xlink" x="0px" y="0px"
	 viewBox="0 0 264.3 243.5" style="enable-background:new 0 0 264.3 243.5;" xml:space="preserve">
<style type="text/css">
	.st0{fill:url(#SVGID_1_);}
	.st1{fill:#FFFFFF;}
	.st2{fill:#4888C8;}
	.st3{font-family:'Geneva';}
	.st4{font-size:15.4908px;}
	.st5{fill:none;}
</style>
<g>
	
		<radialGradient id="SVGID_1_" cx="-86.0123" cy="517.046" r="227.6943" gradientTransform="matrix(1 0 0 -1 149.0522 559.5888)" gradientUnits="userSpaceOnUse">
		<stop  offset="0" style="stop-color:#9DD5F6"/>
		<stop  offset="7.110000e-02" style="stop-color:#98D3F5"/>
		<stop  offset="0.1575" style="stop-color:#89CEF3"/>
		<stop  offset="0.2516" style="stop-color:#70C6EF"/>
		<stop  offset="0.3514" style="stop-color:#4EBBEA"/>
		<stop  offset="0.4546" style="stop-color:#23ADE3"/>
		<stop  offset="0.5" style="stop-color:#0DA6E0"/>
		<stop  offset="1" style="stop-color:#2E77BC"/>
	</radialGradient>
	<path class="st0" d="M262.9,0H20.2v243.5h242.6v-80.4c1-1.4,1.4-3.2,1.4-5.4c0-2.5-0.5-4-1.4-5.3"/>
	<path class="st1" d="M42.1,105.4L37.4,94l-4.6,11.4 M144.9,100.8c-0.9,0.6-2,0.6-3.4,0.6h-8.3v-6.3h8.4c1.2,0,2.4,0.1,3.2,0.5
		c0.9,0.4,1.4,1.3,1.4,2.5C146.3,99.4,145.8,100.4,144.9,100.8z M204,105.4L199.3,94l-4.7,11.4H204z M93.9,117.7h-7l0-22.3L77,117.7
		h-6l-9.9-22.4v22.4H47.2l-2.6-6.4H30.4l-2.6,6.4h-7.4l12.2-28.5h10.1l11.6,27v-27h11.1l8.9,19.4l8.2-19.4h11.4L93.9,117.7
		L93.9,117.7z M121.7,117.7H98.9V89.2h22.8v5.9h-16v5.1h15.6v5.8h-15.6v5.7h16V117.7z M153.9,96.8c0,4.5-3,6.9-4.8,7.6
		c1.5,0.6,2.8,1.6,3.4,2.4c1,1.4,1.1,2.7,1.1,5.2v5.6h-6.9l0-3.6c0-1.7,0.2-4.2-1.1-5.6c-1-1-2.5-1.2-5-1.2h-7.3v10.4h-6.8V89.2
		h15.7c3.5,0,6.1,0.1,8.3,1.4C152.6,91.8,153.9,93.7,153.9,96.8z M164.8,117.7h-7V89.2h7V117.7z M245.5,117.7h-9.7l-12.9-21.4v21.4
		H209l-2.7-6.4h-14.2l-2.6,6.4h-8c-3.3,0-7.5-0.7-9.9-3.2c-2.4-2.4-3.6-5.7-3.6-10.9c0-4.2,0.7-8.1,3.7-11.2
		c2.2-2.3,5.7-3.3,10.4-3.3h6.6v6.1h-6.5c-2.5,0-3.9,0.4-5.2,1.7c-1.2,1.2-2,3.5-2,6.5c0,3.1,0.6,5.3,1.9,6.7c1.1,1.1,3,1.5,4.8,1.5
		h3.1l9.6-22.4h10.2l11.5,27v-27h10.4l12,19.9V89.2h7V117.7L245.5,117.7z M20.2,123.3h11.7l2.6-6.3h5.9l2.6,6.3h22.9v-4.8l2,4.9
		h11.9l2-4.9v4.9h57l0-10.4h1.1c0.8,0,1,0.1,1,1.4v9h29.5v-2.4c2.4,1.3,6.1,2.4,10.9,2.4h12.4l2.7-6.3h5.9l2.6,6.3h23.9v-6l3.6,6
		h19.1V83.5h-18.9v4.7l-2.7-4.7h-19.4v4.7l-2.4-4.7h-26.3c-4.4,0-8.3,0.6-11.4,2.3v-2.3h-18.1v2.3c-2-1.8-4.7-2.3-7.7-2.3H78.4
		L74,93.8l-4.6-10.3H48.6v4.7l-2.3-4.7H28.5l-8.3,18.9L20.2,123.3L20.2,123.3z"/>
	<path class="st1" d="M262.9,144.3h-12.4c-1.2,0-2.1,0-2.8,0.5c-0.7,0.5-1,1.1-1,2.1c0,1.1,0.6,1.8,1.5,2.1c0.7,0.3,1.5,0.3,2.6,0.3
		l3.7,0.1c3.7,0.1,6.2,0.7,7.7,2.3c0.3,0.2,0.4,0.5,0.6,0.7 M262.9,163.2c-1.7,2.4-4.9,3.6-9.3,3.6h-13.2v-6.1h13.1
		c1.3,0,2.2-0.2,2.8-0.7c0.5-0.4,0.8-1.1,0.8-1.9c0-0.8-0.3-1.5-0.8-1.9c-0.5-0.4-1.2-0.6-2.4-0.6c-6.4-0.2-14.4,0.2-14.4-8.8
		c0-4.1,2.6-8.5,9.8-8.5h13.6v-5.7h-12.6c-3.8,0-6.6,0.9-8.5,2.3v-2.3H223c-3,0-6.5,0.7-8.1,2.3v-2.3h-33.3v2.3
		c-2.7-1.9-7.1-2.3-9.2-2.3h-22v2.3c-2.1-2-6.8-2.3-9.6-2.3h-24.6l-5.6,6.1l-5.3-6.1H68.5v39.8h36.1l5.8-6.2l5.5,6.2l22.2,0v-9.4
		h2.2c2.9,0,6.4-0.1,9.5-1.4v10.7h18.3V162h0.9c1.1,0,1.2,0,1.2,1.2v9.2h55.7c3.5,0,7.2-0.9,9.3-2.5v2.5h17.7c3.7,0,7.3-0.5,10-1.8
		V163.2L262.9,163.2z M235.7,151.8c1.3,1.4,2,3.1,2,6c0,6.1-3.8,9-10.7,9h-13.3v-6.1h13.2c1.3,0,2.2-0.2,2.8-0.7
		c0.5-0.4,0.8-1.1,0.8-1.9c0-0.8-0.4-1.5-0.8-1.9c-0.5-0.4-1.2-0.6-2.4-0.6c-6.4-0.2-14.4,0.2-14.4-8.8c0-4.1,2.6-8.5,9.8-8.5h13.7
		v6.1h-12.5c-1.2,0-2,0-2.7,0.5c-0.7,0.5-1,1.1-1,2.1c0,1.1,0.6,1.8,1.5,2.1c0.7,0.3,1.5,0.3,2.7,0.3l3.7,0.1
		C231.6,149.5,234.1,150.2,235.7,151.8z M174.1,150c-0.9,0.5-2,0.6-3.4,0.6h-8.3v-6.4h8.4c1.2,0,2.4,0,3.3,0.5
		c0.9,0.5,1.4,1.3,1.4,2.6S175,149.5,174.1,150z M178.2,153.5c1.5,0.6,2.8,1.6,3.3,2.4c1,1.4,1.1,2.7,1.1,5.2v5.7h-6.8v-3.6
		c0-1.7,0.2-4.3-1.1-5.6c-1-1-2.5-1.3-5-1.3h-7.3v10.4h-6.9v-28.5h15.7c3.5,0,6,0.2,8.2,1.3c2.2,1.3,3.5,3.1,3.5,6.3
		C183.1,150.5,180,152.8,178.2,153.5z M186.9,138.3h22.8v5.9h-16v5.2h15.6v5.8h-15.6v5.7l16,0v5.9h-22.8V138.3z M140.8,151.4H132
		v-7.3h8.9c2.5,0,4.2,1,4.2,3.5C145.1,150.1,143.5,151.4,140.8,151.4z M125.2,164.2l-10.5-11.6l10.5-11.3V164.2z M98.2,160.9H81.4
		v-5.7h15v-5.8h-15v-5.2h17.1l7.5,8.3L98.2,160.9z M152.4,147.7c0,7.9-5.9,9.6-11.9,9.6H132v9.6h-13.3l-8.4-9.4l-8.7,9.4h-27v-28.5
		h27.4l8.4,9.4l8.7-9.4h21.8C146.3,138.3,152.4,139.8,152.4,147.7z"/>
	<text transform="matrix(1 0 0 1 1.7153 242.6752)" class="st2 st3 st4">®</text>
</g>
<path class="st5" d="M262.4,0.9L-31,0.9l0,238.6l294.7,0l0-238.7H262.4z M261,3.6c0,2.7,0,230.6,0,233.3c-2.7,0-286.6,0-289.3,0
	c0-2.7,0-230.6,0-233.2C-25.6,3.6,258.3,3.6,261,3.6z"/>
</svg>
