<?xml version="1.0" encoding="utf-8"?>
<!-- Generator: Adobe Illustrator 21.0.0, SVG Export Plug-In . SVG Version: 6.00 Build 0)  -->
<svg version="1.1" id="Layer_1" xmlns="http://www.w3.org/2000/svg" xmlns:xlink="http://www.w3.org/1999/xlink" x="0px" y="0px"
	 viewBox="0 0 35 22" style="enable-background:new 0 0 35 22;" xml:space="preserve">
<style type="text/css">
	.st0{fill:#FFFFFF;}
	.st1{fill:#009CDE;}
	.st2{fill:#012169;}
	.st3{fill:#003087;}
</style>
<g>
	<rect x="0" y="0" class="st0" width="35" height="22"/>
</g>
<g>
	<path class="st1" d="M22.8,7.1c0.2-1.2,0-2.1-0.7-2.9C21.4,3.4,20,3,18.3,3h-5c-0.4,0-0.6,0.3-0.7,0.6l-2.1,13.2
		c0,0.3,0.2,0.5,0.4,0.5H14l-0.2,1.3c0,0.2,0.1,0.4,0.4,0.4h2.6c0.3,0,0.6-0.2,0.6-0.5l0-0.1l0.5-3.1l0-0.2c0-0.3,0.3-0.5,0.6-0.5
		H19c2.5,0,4.5-1,5.1-4c0.2-1.2,0.1-2.3-0.5-3C23.3,7.4,23.1,7.2,22.8,7.1L22.8,7.1"/>
	<path class="st2" d="M22.8,7.1c0.2-1.2,0-2.1-0.7-2.9C21.4,3.4,20,3,18.3,3h-5c-0.4,0-0.6,0.3-0.7,0.6l-2.1,13.2
		c0,0.3,0.2,0.5,0.4,0.5H14l0.8-4.9l0,0.2c0.1-0.3,0.4-0.6,0.7-0.6H17c2.9,0,5.1-1.2,5.8-4.5C22.7,7.3,22.8,7.2,22.8,7.1"/>
	<path class="st3" d="M15.6,7.1c0-0.2,0.2-0.4,0.3-0.5c0.1,0,0.2-0.1,0.3-0.1h3.9c0.5,0,0.9,0,1.3,0.1c0.1,0,0.2,0,0.3,0.1
		c0.1,0,0.2,0.1,0.3,0.1c0.1,0,0.1,0,0.1,0c0.2,0.1,0.4,0.1,0.5,0.2c0.2-1.2,0-2.1-0.7-2.9C21.4,3.4,20,3,18.3,3h-5
		c-0.4,0-0.6,0.3-0.7,0.6l-2.1,13.2c0,0.3,0.2,0.5,0.4,0.5H14l0.8-4.9L15.6,7.1z"/>
</g>
</svg>
