<?xml version="1.0" encoding="utf-8"?>
<!-- Generator: Adobe Illustrator 21.0.0, SVG Export Plug-In . SVG Version: 6.00 Build 0)  -->
<svg version="1.1" id="Layer_1" xmlns="http://www.w3.org/2000/svg" xmlns:xlink="http://www.w3.org/1999/xlink" x="0px" y="0px"
	 viewBox="0 0 35 22" style="enable-background:new 0 0 35 22;" xml:space="preserve">
<style type="text/css">
	.st0{fill:#FFFFFF;}
	.st1{fill:#009CDE;}
	.st2{fill:#012169;}
	.st3{fill:#003087;}
</style>
<g id="Layer_2">
	<rect class="st0" width="35" height="22"/>
</g>
<g id="Layer_1_1_">
	<g>
		<g>
			<path class="st1" d="M10,8.7c0.1-0.8,0-1.4-0.4-1.9C9,6.2,8.1,6,7,6H3.7C3.5,6,3.3,6.2,3.3,6.4l-1.4,8.7c0,0.2,0.1,0.3,0.3,0.3h2
				l-0.1,0.9c0,0.1,0.1,0.3,0.2,0.3H6c0.2,0,0.4-0.1,0.4-0.3v-0.1l0.3-2v-0.1c0-0.2,0.2-0.3,0.4-0.3h0.3c1.7,0,3-0.7,3.3-2.6
				c0.2-0.8,0.1-1.5-0.3-2C10.3,8.9,10.1,8.8,10,8.7L10,8.7"/>
			<path class="st2" d="M10,8.7c0.1-0.8,0-1.4-0.4-1.9C9,6.2,8.1,6,7,6H3.7C3.5,6,3.3,6.2,3.3,6.4l-1.4,8.7c0,0.2,0.1,0.3,0.3,0.3h2
				l0.5-3.2v0.1c0-0.2,0.2-0.4,0.5-0.4h1c1.9,0,3.4-0.8,3.8-3C9.9,8.8,10,8.8,10,8.7"/>
			<path class="st3" d="M5.3,8.7c0-0.1,0.1-0.3,0.2-0.3s0.1,0,0.2,0h2.6c0.3,0,0.6,0,0.9,0.1c0.1,0,0.1,0,0.2,0c0.1,0,0.1,0,0.2,0.1
				h0.1c0.1,0,0.2,0.1,0.4,0.2c0.1-0.8,0-1.4-0.4-1.9C9,6.2,8.1,6,7,6H3.7C3.5,6,3.3,6.2,3.3,6.4l-1.4,8.7c0,0.2,0.1,0.3,0.3,0.3h2
				l0.5-3.2L5.3,8.7z"/>
		</g>
		<g>
			<path class="st3" d="M24.1,11.4c0-0.1,0.1-0.1,0.2-0.1h1.6c1.3,0,2.2,1,2,2.3C27.6,15,26.4,16,25.1,16h-1.6
				c-0.1,0-0.1-0.1-0.1-0.1L24.1,11.4z M24.7,15H25c0.7,0,1.4-0.4,1.6-1.3c0.1-0.8-0.3-1.3-1.1-1.3h-0.2c0,0-0.1,0-0.1,0.1L24.7,15z
				"/>
			<path class="st3" d="M22,12.5l-0.1,0.6h1.3c0.1,0,0.1,0.1,0.1,0.1L23.2,14c0,0.1-0.1,0.1-0.2,0.1h-1.1c-0.1,0-0.2,0.1-0.2,0.1
				L21.6,15H23c0.1,0,0.1,0.1,0.1,0.1L23,15.9c0,0.1-0.1,0.1-0.2,0.1h-2.4c-0.1,0-0.1-0.1-0.1-0.1l0.7-4.4c0-0.1,0.1-0.1,0.2-0.1
				h2.4c0.1,0,0.1,0.1,0.1,0.1l-0.1,0.8c0,0.1-0.1,0.1-0.2,0.1h-1.2C22.1,12.3,22,12.4,22,12.5z"/>
			<path class="st3" d="M28.9,16h-1c-0.1,0-0.1-0.1-0.1-0.1l0.7-4.4c0-0.1,0.1-0.1,0.2-0.1h1c0.1,0,0.1,0.1,0.1,0.1l-0.7,4.4
				C29.1,15.9,29,16,28.9,16z"/>
			<path class="st3" d="M19.9,16h-1.3c-0.1,0-0.1,0-0.1-0.1l-0.8-1.7l0,0l-0.3,1.7c0,0.1-0.1,0.1-0.1,0.1h-1c-0.1,0-0.1-0.1-0.1-0.1
				l0.7-4.5c0-0.1,0.1-0.1,0.1-0.1h1.7c0.9,0,1.6,0.4,1.4,1.4c-0.1,0.6-0.6,1.2-1.2,1.3l1.1,1.8C20.1,15.9,20,16,19.9,16z
				 M17.8,13.4H18c0.4,0,0.9-0.1,0.9-0.6c0.1-0.5-0.2-0.6-0.6-0.6h-0.2c-0.1,0-0.1,0-0.1,0.1L17.8,13.4z"/>
			<path class="st3" d="M31.5,16h-1c-0.1,0-0.1-0.1-0.1-0.1l0.6-3.5h-0.9c-0.1,0-0.1-0.1-0.1-0.1l0.1-0.8c0-0.1,0.1-0.1,0.2-0.1h3
				c0.1,0,0.1,0.1,0.1,0.1l-0.1,0.8c0,0.1-0.1,0.1-0.2,0.1h-0.9l-0.6,3.5C31.7,15.9,31.6,16,31.5,16z"/>
			<path class="st3" d="M16.3,12.6c0,0.1-0.1,0.1-0.2,0.1c-0.2-0.2-0.5-0.3-0.8-0.3c-0.7,0-1.3,0.6-1.5,1.3
				c-0.1,0.7,0.3,1.3,1.1,1.3c0.3,0,0.6-0.1,0.9-0.3c0.1-0.1,0.2,0,0.2,0.1l-0.2,1.1c0,0.1-0.1,0.1-0.1,0.1c-0.4,0.1-0.7,0.2-1,0.2
				c-2,0-2.3-1.7-2.2-2.5c0.3-2.1,2-2.5,3-2.5c0.3,0,0.6,0.1,0.9,0.2c0.1,0,0.1,0.1,0.1,0.2L16.3,12.6z"/>
		</g>
		<g>
			<path class="st1" d="M22.4,6.6h-1.1c-0.1,0-0.1,0.1-0.1,0.1l-0.4,2.7c0,0.1,0,0.1,0.1,0.1h0.5c0.1,0,0.1,0,0.1-0.1l0.1-0.8
				c0-0.1,0.1-0.1,0.1-0.1H22c0.7,0,1.1-0.3,1.2-1c0-0.3,0-0.5-0.1-0.7C23,6.7,22.7,6.6,22.4,6.6z M22.5,7.6C22.4,8,22.1,8,21.9,8
				h-0.2l0.1-0.7c0,0,0-0.1,0.1-0.1H22c0.2,0,0.4,0,0.5,0.1C22.5,7.3,22.5,7.4,22.5,7.6z"/>
			<path class="st3" d="M14.8,6.6h-1.1c-0.1,0-0.1,0.1-0.1,0.1l-0.4,2.7c0,0.1,0,0.1,0.1,0.1h0.5c0.1,0,0.1-0.1,0.1-0.1L14,8.7
				c0-0.1,0.1-0.1,0.1-0.1h0.3c0.7,0,1.1-0.3,1.2-1c0-0.3,0-0.5-0.1-0.7S15.2,6.6,14.8,6.6z M14.9,7.6C14.9,8,14.6,8,14.3,8h-0.2
				l0.1-0.7c0,0,0-0.1,0.1-0.1h0.1c0.2,0,0.4,0,0.5,0.1C14.9,7.3,15,7.4,14.9,7.6z"/>
			<path class="st3" d="M18,7.6h-0.5c0,0-0.1,0-0.1,0.1v0.1V7.7c-0.1-0.2-0.4-0.2-0.6-0.2c-0.6,0-1,0.4-1.1,1c0,0.3,0,0.6,0.2,0.8
				s0.4,0.3,0.6,0.3c0.5,0,0.7-0.3,0.7-0.3v0.1c0,0.1,0,0.1,0.1,0.1h0.5c0.1,0,0.1-0.1,0.1-0.1l0.3-1.7C18.1,7.6,18,7.6,18,7.6z
				 M17.3,8.6C17.2,8.8,17,9,16.7,9c-0.1,0-0.3,0-0.3-0.1c-0.1-0.1-0.1-0.2-0.1-0.4c0-0.3,0.3-0.5,0.6-0.5c0.1,0,0.3,0,0.3,0.1
				C17.3,8.3,17.3,8.4,17.3,8.6z"/>
			<path class="st1" d="M25.5,7.6H25c0,0-0.1,0-0.1,0.1v0.1V7.7c-0.1-0.2-0.4-0.2-0.6-0.2c-0.6,0-1,0.4-1.1,1c0,0.3,0,0.6,0.2,0.8
				s0.4,0.3,0.6,0.3c0.5,0,0.7-0.3,0.7-0.3v0.1c0,0.1,0,0.1,0.1,0.1h0.5c0.1,0,0.1-0.1,0.1-0.1l0.3-1.7C25.6,7.6,25.6,7.6,25.5,7.6z
				 M24.8,8.6c0,0.3-0.3,0.5-0.6,0.5c-0.1,0-0.3,0-0.3-0.1c-0.1-0.1-0.1-0.2-0.1-0.4c0-0.3,0.3-0.5,0.6-0.5c0.1,0,0.3,0,0.3,0.1
				C24.8,8.3,24.8,8.4,24.8,8.6z"/>
			<path class="st3" d="M20.7,7.6h-0.5c0,0-0.1,0-0.1,0.1l-0.7,1l-0.3-1c0-0.1-0.1-0.1-0.1-0.1h-0.5c-0.1,0-0.1,0.1-0.1,0.1L19,9.3
				L18.5,10c0,0.1,0,0.1,0.1,0.1h0.5c0,0,0.1,0,0.1-0.1l1.7-2.4C20.8,7.6,20.8,7.6,20.7,7.6z"/>
			<path class="st1" d="M26.1,6.7l-0.4,2.8c0,0.1,0,0.1,0.1,0.1h0.4c0.1,0,0.1-0.1,0.1-0.1l0.4-2.7c0-0.1,0-0.1-0.1-0.1L26.1,6.7
				C26.2,6.6,26.1,6.6,26.1,6.7z"/>
		</g>
	</g>
</g>
</svg>
